<?xml version="1.0" encoding="UTF-8"?>
<svg version="1.1" xmlns="http://www.w3.org/2000/svg" width="893" height="279">
<path d="M0 0 C15.12131377 13.95352914 23.21147352 35.04897297 24.046875 55.23828125 C24.61164738 79.92179027 21.267026 100.94349485 4.66015625 120.0703125 C3.89703125 121.0809375 3.13390625 122.0915625 2.34765625 123.1328125 C-11.17173704 137.90982377 -31.96850246 147.25990769 -51.97216797 148.19311523 C-79.17433863 148.93188972 -102.28283935 144.6816665 -123.60546875 126.671875 C-140.33407112 110.75580475 -148.29494987 88.85299869 -149.33984375 66.0703125 C-149.78999142 42.73850123 -142.83315379 19.62493224 -126.671875 2.3203125 C-91.83809694 -31.28815678 -36.44121137 -30.05335295 0 0 Z M-96.13671875 29.984375 C-105.79906581 41.99055873 -107.27840093 56.17071719 -106.33984375 71.0703125 C-104.81064625 81.2968208 -100.84766645 93.12284495 -92.3359375 99.59375 C-79.29106639 108.64349138 -65.77594308 110.41969669 -50.33984375 108.0703125 C-39.68343607 105.42812446 -30.46013678 99.75518151 -24.6328125 90.30078125 C-17.15625857 76.12989193 -16.28501335 60.39003349 -20.36328125 44.97265625 C-23.58741584 35.39052825 -29.39525089 27.24045798 -38.19921875 22.1328125 C-56.34365767 13.12681362 -81.84410273 14.75963184 -96.13671875 29.984375 Z " fill="#86C426" transform="translate(829.33984375,69.9296875)"/>
<path d="M0 0 C8.70283963 -0.07013161 17.405579 -0.12312673 26.10864162 -0.15543652 C30.15171368 -0.17095926 34.1945896 -0.19194577 38.23754883 -0.22631836 C42.15389437 -0.25939846 46.07005371 -0.27695305 49.9865284 -0.28463173 C51.4657388 -0.29008951 52.94494136 -0.30074068 54.42407036 -0.31719017 C80.68138836 -0.59704693 104.04728092 6.44961998 123.53710938 24.55761719 C137.98167171 38.79968566 144.95914424 60.0218636 145.29248047 79.90942383 C145.39482749 97.30717006 143.39657461 111.48768419 135 127 C134.49855469 127.93199219 133.99710938 128.86398438 133.48046875 129.82421875 C122.91332598 147.84749632 105.12764173 159.24841523 85.3671875 165.0703125 C74.39374258 167.69273669 63.82438743 168.1507573 52.59765625 168.1328125 C51.10932906 168.13348695 49.62100198 168.13445816 48.13267517 168.13571167 C45.03041524 168.13717879 41.92818428 168.1350638 38.82592773 168.13037109 C34.84218864 168.12463939 30.85851642 168.1279806 26.8747797 168.13394356 C23.80970245 168.13754618 20.74464124 168.13641258 17.67956352 168.13381577 C16.2094872 168.13314747 14.73940943 168.13397155 13.26933479 168.13629532 C11.22521109 168.13882064 9.18108228 168.13429261 7.13696289 168.12939453 C5.39111656 168.12820114 5.39111656 168.12820114 3.61000061 168.12698364 C1 168 1 168 0 167 C-0.096937 164.84840274 -0.12186783 162.69355889 -0.12025452 160.53977966 C-0.12153615 159.51556816 -0.12153615 159.51556816 -0.12284368 158.47066551 C-0.12450043 156.16588309 -0.11897397 153.86117228 -0.11352539 151.55639648 C-0.11324353 149.91094972 -0.11340122 148.26550284 -0.1139679 146.62005615 C-0.11425593 142.13884241 -0.10835821 137.65765519 -0.10139394 133.17644763 C-0.09516142 128.49857895 -0.09455668 123.82070972 -0.09336853 119.14283752 C-0.09025491 110.27824832 -0.08204111 101.41367138 -0.07201904 92.54908758 C-0.06085885 82.45977798 -0.05534769 72.3704678 -0.05032361 62.28115356 C-0.03985852 41.52076218 -0.02225849 20.76038186 0 0 Z M42 39 C42 68.37 42 97.74 42 128 C57.91895111 130.27413587 71.91809363 129.10635657 86.0625 121.3125 C95.43519177 113.93399797 101.02651728 104.73514142 102.8125 92.8125 C102.9053125 90.9253125 102.9053125 90.9253125 103 89 C103.03867188 88.24589844 103.07734375 87.49179688 103.1171875 86.71484375 C103.48780197 73.72274744 100.50267748 62.21940623 92.75 51.625 C78.32674237 37.85734499 60.75763594 39 42 39 Z " fill="#0B6F36" transform="translate(42,49)"/>
<path d="M0 0 C0.91349685 0.00092179 1.82699369 0.00184359 2.76817226 0.00279331 C3.81290203 0.00141865 4.8576318 0.00004398 5.93402004 -0.00137234 C7.08991634 0.00222294 8.24581264 0.00581821 9.43673611 0.00952244 C10.64632488 0.00937641 11.85591366 0.00923038 13.10215664 0.00907993 C16.42846172 0.0096589 19.75470541 0.0146881 23.08099961 0.02165389 C26.55369751 0.02788805 30.02639615 0.02849128 33.49909878 0.0296793 C40.07936014 0.03279243 46.65960497 0.04100557 53.23985904 0.05102879 C60.72945933 0.06219049 68.21906039 0.06770052 75.70866692 0.07272422 C91.11925361 0.0831882 106.52982378 0.1007873 121.94039822 0.12304783 C122.73646874 4.62448364 123.06909597 8.84315098 123.07321072 13.41992283 C123.07416744 14.09476719 123.07512417 14.76961155 123.07610989 15.46490574 C123.07678618 16.88008817 123.07497056 18.29527381 123.07076931 19.71045017 C123.06537945 21.88060477 123.07075002 24.05055556 123.07711697 26.22070408 C123.07645674 27.59961079 123.07517674 28.97851737 123.07321072 30.35742283 C123.07208279 31.60749119 123.07095486 32.85755955 123.06979275 34.14550877 C122.94039822 37.12304783 122.94039822 37.12304783 121.94039822 39.12304783 C94.88039822 39.45304783 67.82039822 39.78304783 39.94039822 40.12304783 C39.61039822 48.04304783 39.28039822 55.96304783 38.94039822 64.12304783 C41.87825222 64.1151926 41.87825222 64.1151926 44.87545681 64.10717869 C51.33750685 64.09107118 57.79955214 64.07957103 64.26161671 64.07123566 C68.18059692 64.06601105 72.09955547 64.05892103 76.01852322 64.04760838 C79.79862208 64.03676454 83.57870007 64.0307678 87.35881329 64.02817059 C88.80294657 64.02631904 90.24707869 64.02270359 91.69120312 64.01731777 C93.70964099 64.01008762 95.72809974 64.0096396 97.74655056 64.00952244 C99.47196575 64.00619152 99.47196575 64.00619152 101.23223782 64.00279331 C103.94039822 64.12304783 103.94039822 64.12304783 105.94039822 65.12304783 C105.96504671 70.51651771 105.98323352 75.90995508 105.99532986 81.30346775 C106.00037053 83.13973658 106.00720298 84.97600137 106.01583767 86.81225681 C106.02791494 89.44581184 106.03362903 92.07931399 106.03805447 94.71289158 C106.04321575 95.53893391 106.04837704 96.36497623 106.05369473 97.21605015 C106.05389026 99.1854115 106.00243973 101.15466396 105.94039822 103.12304783 C104.94039822 104.12304783 104.94039822 104.12304783 102.31452847 104.24330235 C101.14426617 104.24108173 99.97400387 104.23886112 98.76827908 104.23657322 C98.12439739 104.23671925 97.48051571 104.23686527 96.81712246 104.23701572 C94.67979519 104.23631668 92.54255409 104.22852474 90.40524197 104.22070408 C88.92693536 104.21883987 87.44862814 104.21741598 85.9703207 104.21641636 C82.07241019 104.21259142 78.17453673 104.20276134 74.27664089 104.19171238 C70.30193489 104.18149775 66.32722292 104.17691863 62.35250759 104.17187595 C54.54845226 104.16113905 46.74443514 104.14354245 38.94039822 104.12304783 C38.94039822 112.04304783 38.94039822 119.96304783 38.94039822 128.12304783 C80.02539822 128.61804783 80.02539822 128.61804783 121.94039822 129.12304783 C122.65438059 133.40694207 123.06847281 136.89405707 123.07321072 141.15039158 C123.07449978 142.27252048 123.07578884 143.39464939 123.07711697 144.5507822 C123.07324978 145.70900486 123.06938259 146.86722752 123.06539822 148.06054783 C123.0692654 149.2149033 123.07313259 150.36925877 123.07711697 151.5585947 C123.0758279 152.68201267 123.07453884 153.80543064 123.07321072 154.96289158 C123.07208279 155.9773032 123.07095486 156.99171482 123.06979275 158.03686619 C122.92670971 161.44953153 122.44264958 164.74642868 121.94039822 168.12304783 C105.79007901 168.14637692 89.63976525 168.16402705 73.48943329 168.17486 C65.99106757 168.18002294 58.4927123 168.18706559 50.99435329 168.19848728 C44.46109318 168.20843419 37.92784063 168.21490127 31.39457315 168.21713632 C27.93318015 168.21844342 24.47180879 168.22152919 21.01042271 168.22877789 C17.15252295 168.2367919 13.29464465 168.23703896 9.43673611 168.23657322 C8.28083981 168.2401685 7.1249435 168.24376377 5.93402004 168.24746799 C4.88929028 168.24609333 3.84456051 168.24471867 2.76817226 168.24330235 C1.39792699 168.24468503 1.39792699 168.24468503 0 168.24609566 C-2.05960178 168.12304783 -2.05960178 168.12304783 -3.05960178 167.12304783 C-3.15871787 164.98641757 -3.18592546 162.84644836 -3.18658543 160.70752048 C-3.18814542 160.02950193 -3.18970541 159.35148338 -3.19131267 158.65291882 C-3.1953247 156.36429435 -3.19213226 154.07573537 -3.18899632 151.78711033 C-3.19035027 150.15313776 -3.19213016 148.5191655 -3.19430637 146.88519382 C-3.19888144 142.43490704 -3.19709085 137.98464333 -3.19392729 133.53435612 C-3.19140406 128.88764983 -3.19374112 124.24094559 -3.19531345 119.59423923 C-3.19713526 111.78938535 -3.19472855 103.98454091 -3.18997288 96.17968845 C-3.18453024 87.14277546 -3.18629289 78.10588503 -3.19179928 69.06897259 C-3.1963301 61.32462527 -3.19698112 53.58028476 -3.19436061 45.83593655 C-3.19279767 41.20419921 -3.19260455 36.57247248 -3.1958971 31.94073582 C-3.19877536 27.58731366 -3.19680096 23.23392073 -3.19100285 18.88050175 C-3.189675 17.27803947 -3.19006977 15.67557476 -3.19226551 14.07311344 C-3.19497609 11.89490026 -3.19159706 9.71678221 -3.18658543 7.53857517 C-3.1862084 6.3166547 -3.18583138 5.09473423 -3.18544292 3.83578587 C-3.01586303 0.18017823 -3.01586303 0.18017823 0 0 Z " fill="#2A8333" transform="translate(214.05960178375244,48.876952171325684)"/>
<path d="M0 0 C14.85 0 29.7 0 45 0 C49.49980486 10.12456094 49.49980486 10.12456094 51.14379883 14.77124023 C51.5160257 15.81764175 51.88825256 16.86404327 52.27175903 17.94215393 C52.66289886 19.05307907 53.0540387 20.16400421 53.45703125 21.30859375 C54.08748856 23.08525673 54.08748856 23.08525673 54.73068237 24.89781189 C55.62944684 27.4319594 56.52695051 29.96650887 57.42221069 32.50189209 C58.82254866 36.467548 60.22783817 40.43143733 61.6340332 44.39501953 C63.29145407 49.06756671 64.94791866 53.74045004 66.60290432 58.41386032 C70.29551851 68.84066386 74.00515327 79.26136002 77.72494507 89.67849731 C78.66962741 92.3249317 79.61284473 94.97188486 80.5559082 97.61889648 C81.12443586 99.21210389 81.69303476 100.80528588 82.26171875 102.3984375 C82.51283417 103.10403305 82.76394958 103.8096286 83.02267456 104.53660583 C84.2801311 108.05423094 85.58480436 111.54267081 87 115 C89.02014912 111.96977631 90.02853086 109.38710446 91.22265625 105.95703125 C91.43996902 105.33712814 91.6572818 104.71722504 91.88117981 104.07853699 C92.61209073 101.9911668 93.3371995 99.90182561 94.0625 97.8125 C94.85543259 95.54316557 95.6498847 93.27436652 96.44439697 91.00558472 C97.01954143 89.36295013 97.5941924 87.72014267 98.168396 86.07717896 C100.5464958 79.27731732 102.9510704 72.48704656 105.36328125 65.69921875 C105.73640945 64.64869827 106.10953766 63.5981778 106.49397278 62.51582336 C107.98361584 58.32212749 109.47336842 54.1284727 110.96560669 49.93569946 C114.76375134 39.26069728 118.5446274 28.5865699 122.03329468 17.80554199 C126.80845272 3.19154728 126.80845272 3.19154728 130 0 C131.41225046 -0.0928726 132.82908934 -0.11746772 134.24438477 -0.11352539 C135.14524307 -0.11344986 136.04610138 -0.11337433 136.97425842 -0.11329651 C137.95341721 -0.10813522 138.93257599 -0.10297394 139.94140625 -0.09765625 C140.93881332 -0.0962413 141.9362204 -0.09482635 142.96385193 -0.09336853 C146.16343124 -0.08775114 149.36294169 -0.07519571 152.5625 -0.0625 C154.72591045 -0.05748724 156.88932199 -0.05292395 159.05273438 -0.04882812 C164.36851325 -0.03777607 169.68425171 -0.02102104 175 0 C174.44029369 3.96449618 173.60330919 7.39564715 172.05859375 11.0859375 C166.86942329 23.52144819 161.77797307 35.99187335 156.7857399 48.50753212 C155.04376647 52.87429178 153.29856968 57.23976379 151.55395508 61.60546875 C151.00176867 62.98757144 151.00176867 62.98757144 150.43842697 64.39759541 C144.08093453 80.308498 137.70349324 96.21141173 131.31867504 112.11136627 C129.23722078 117.29491157 127.15719212 122.47902043 125.08007812 127.66430664 C123.02219839 132.8014625 120.96102924 137.93728662 118.89747238 143.07216454 C118.12201049 145.00342964 117.34772515 146.93516762 116.57466507 148.8673954 C115.50948414 151.52917299 114.44008935 154.18921906 113.36962891 156.84887695 C112.89915382 158.02883743 112.89915382 158.02883743 112.41917419 159.2326355 C111.14608021 162.38493175 109.8926136 165.1610796 108 168 C106.20297241 168.36076355 106.20297241 168.36076355 104.00927734 168.34057617 C102.77822769 168.34023628 102.77822769 168.34023628 101.52230835 168.33988953 C100.63580597 168.32440567 99.74930359 168.30892181 98.8359375 168.29296875 C97.92872955 168.28872391 97.02152161 168.28447906 96.08682251 168.28010559 C93.18258268 168.26328133 90.2790309 168.2256226 87.375 168.1875 C85.40886417 168.17245799 83.44271749 168.15876875 81.4765625 168.14648438 C76.65077561 168.11336557 71.82550455 168.06155786 67 168 C63.20730716 160.75325547 60.03609276 153.37600115 57.05078125 145.765625 C56.27441181 143.80358245 55.49611744 141.84230996 54.71770573 139.88107681 C54.13543135 138.41399957 53.55362833 136.94673518 52.97224331 135.47930527 C49.03867383 125.5579941 45.04664919 115.66012727 41.06151962 105.75944519 C39.18517049 101.0972612 37.31027852 96.43449176 35.43535042 91.77173615 C32.03787969 83.32259188 28.6397266 74.87372233 25.24047852 66.42529297 C22.83966649 60.45825508 20.4398687 54.49081014 18.04070473 48.52310944 C17.13976281 46.28263749 16.23845723 44.04231174 15.33675194 41.80214691 C12.54743132 34.87222811 9.76817136 27.93839315 7 21 C6.45832373 19.64652214 6.45832373 19.64652214 5.9057045 18.26570129 C4.89672809 15.73955573 3.89496915 13.21068304 2.89575195 10.68066406 C2.59890849 9.93966335 2.30206503 9.19866264 1.99622631 8.43520737 C0.833883 5.47133887 0 3.21422984 0 0 Z " fill="#48992E" transform="translate(344,49)"/>
<path d="M0 0 C13.86 0 27.72 0 42 0 C42 55.44 42 110.88 42 168 C28.14 168 14.28 168 0 168 C-0.64886294 162.80909646 -1.12528035 158.28290341 -1.12698364 153.14251709 C-1.12980347 151.82469238 -1.13262329 150.50686768 -1.13552856 149.14910889 C-1.1335848 147.71105943 -1.13153667 146.27301011 -1.12939453 144.83496094 C-1.1307512 143.3033443 -1.13253263 141.771728 -1.13470459 140.2401123 C-1.13924571 136.09994544 -1.13750347 131.95980362 -1.1343255 127.81963634 C-1.13178655 123.48133974 -1.13414355 119.14304523 -1.13571167 114.80474854 C-1.1375281 107.52510189 -1.13514004 100.24546541 -1.13037109 92.96582031 C-1.12492131 84.54968509 -1.12669844 76.13357406 -1.1321975 67.71743941 C-1.13673386 60.4850016 -1.13737686 53.25257108 -1.13475883 46.0201323 C-1.1332 41.70307153 -1.13299171 37.38602214 -1.13629532 33.0689621 C-1.13918188 29.01419947 -1.13718385 24.95946811 -1.13140106 20.90470886 C-1.13007804 19.41637982 -1.13045983 17.92804815 -1.13266373 16.43972015 C-1.13539293 14.40966383 -1.13136496 12.37960177 -1.12698364 10.34954834 C-1.12660662 9.21322842 -1.12622959 8.07690849 -1.12584114 6.90615463 C-1 4 -1 4 0 0 Z " fill="#6DB329" transform="translate(615,49)"/>
<path d="M0 0 C5.41636872 5.29040666 7.83308688 11.1995786 8.09765625 18.80859375 C7.65556979 26.58284596 5.72012984 32.27987016 0.1875 37.8125 C-7.50660397 43.09276743 -13.69445232 43.98250321 -23 43 C-30.25203909 41.26344245 -34.82684047 37.04633909 -39 31 C-41.87203298 25.50567604 -41.73174606 19.05214969 -41 13 C-38.50332096 5.04183556 -33.84383038 -0.45698905 -26.5 -4.3125 C-17.24638307 -6.85724466 -7.55589463 -6.47648112 0 0 Z " fill="#60A92C" transform="translate(577,175)"/>
<path d="M0 0 C13.86 0 27.72 0 42 0 C42 55.44 42 110.88 42 168 C28.14 168 14.28 168 0 168 C-1.12528783 158.99769732 -1.12528783 158.99769732 -1.12939453 154.72070312 C-1.13254669 153.76611206 -1.13569885 152.811521 -1.13894653 151.82800293 C-1.1369223 150.82257446 -1.13489807 149.817146 -1.1328125 148.78125 C-1.13376923 147.72393677 -1.13472595 146.66662354 -1.13571167 145.57727051 C-1.13638924 143.35180603 -1.1345646 141.12633953 -1.13037109 138.90087891 C-1.12501689 135.51069667 -1.13033053 132.12064691 -1.13671875 128.73046875 C-1.13605789 126.55989554 -1.13477658 124.38932242 -1.1328125 122.21875 C-1.13584885 120.7106073 -1.13584885 120.7106073 -1.13894653 119.17199707 C-1.12083665 113.6876523 -0.80873928 108.42586156 0 103 C0.33 103 0.66 103 1 103 C1.01030746 103.71774597 1.02061493 104.43549194 1.03123474 105.17498779 C1.12926383 111.94324538 1.23178596 118.71142165 1.33933926 125.47953415 C1.39447368 128.95898084 1.44787825 132.43843607 1.49731445 135.91796875 C1.55424124 139.91936197 1.61871887 143.92060269 1.68359375 147.921875 C1.70030624 149.16990906 1.71701874 150.41794312 1.73423767 151.70379639 C1.75418289 152.86469788 1.77412811 154.02559937 1.79467773 155.22167969 C1.81022202 156.24316101 1.8257663 157.26464233 1.84178162 158.31707764 C1.9318155 161.25143595 1.9318155 161.25143595 3 165 C15.21 165.33 27.42 165.66 40 166 C40 111.88 40 57.76 40 2 C26.8 2.33 13.6 2.66 0 3 C0 2.01 0 1.02 0 0 Z " fill="#73A741" transform="translate(615,49)"/>
<path d="M0 0 C22.44 0 44.88 0 68 0 C68 0.66 68 1.32 68 2 C67.20264435 2.01030746 66.4052887 2.02061493 65.58377075 2.03123474 C58.0790848 2.12910568 50.57448326 2.23160513 43.06993294 2.33933926 C39.21152754 2.39456566 35.35311456 2.44798519 31.49462891 2.49731445 C27.77281878 2.54496221 24.05110191 2.59730514 20.32940292 2.65294075 C18.90762522 2.67336245 17.48582194 2.69207585 16.06399918 2.70907402 C14.07662369 2.73312181 12.08933095 2.76373998 10.10205078 2.79467773 C8.40328293 2.81799416 8.40328293 2.81799416 6.67019653 2.84178162 C4.02672207 2.82267002 4.02672207 2.82267002 2 4 C1.67 57.13 1.34 110.26 1 165 C5.26617793 165.85323559 8.68666564 166.12128529 12.9934082 166.11352539 C13.67688828 166.11367142 14.36036835 166.11381744 15.06455994 166.1139679 C17.31000001 166.11327462 19.55535577 166.10550974 21.80078125 166.09765625 C23.36305191 166.09578999 24.92532315 166.09436707 26.4875946 166.09336853 C30.58930084 166.08955972 34.69097139 166.07974346 38.79266357 166.06866455 C42.98221351 166.0584152 47.17176925 166.05386337 51.36132812 166.04882812 C59.57423509 166.03811967 67.7871131 166.02106297 76 166 C76 166.33 76 166.66 76 167 C68.22397049 168.25881548 60.45146433 168.14536602 52.59765625 168.1328125 C51.10932906 168.13348695 49.62100198 168.13445816 48.13267517 168.13571167 C45.03041524 168.13717879 41.92818428 168.1350638 38.82592773 168.13037109 C34.84218864 168.12463939 30.85851642 168.1279806 26.8747797 168.13394356 C23.80970245 168.13754618 20.74464124 168.13641258 17.67956352 168.13381577 C16.2094872 168.13314747 14.73940943 168.13397155 13.26933479 168.13629532 C11.22521109 168.13882064 9.18108228 168.13429261 7.13696289 168.12939453 C5.39111656 168.12820114 5.39111656 168.12820114 3.61000061 168.12698364 C1 168 1 168 0 167 C-0.096937 164.84840274 -0.12186783 162.69355889 -0.12025452 160.53977966 C-0.12153615 159.51556816 -0.12153615 159.51556816 -0.12284368 158.47066551 C-0.12450043 156.16588309 -0.11897397 153.86117228 -0.11352539 151.55639648 C-0.11324353 149.91094972 -0.11340122 148.26550284 -0.1139679 146.62005615 C-0.11425593 142.13884241 -0.10835821 137.65765519 -0.10139394 133.17644763 C-0.09516142 128.49857895 -0.09455668 123.82070972 -0.09336853 119.14283752 C-0.09025491 110.27824832 -0.08204111 101.41367138 -0.07201904 92.54908758 C-0.06085885 82.45977798 -0.05534769 72.3704678 -0.05032361 62.28115356 C-0.03985852 41.52076066 -0.02151267 20.76038459 0 0 Z " fill="#135C3A" transform="translate(42,49)"/>
<path d="M0 0 C0.99 0.66 1.98 1.32 3 2 C-20.64733667 17.22428091 -47.74007031 20.55101693 -75.0859375 14.8515625 C-78 14 -78 14 -81 12 C-74.84765625 11.90234375 -74.84765625 11.90234375 -73 12 C-72.67 12.33 -72.34 12.66 -72 13 C-69.65012738 13.23527773 -67.29443961 13.41386417 -64.9375 13.5625 C-63.64714844 13.64628906 -62.35679687 13.73007813 -61.02734375 13.81640625 C-60.02832031 13.87699219 -59.02929688 13.93757812 -58 14 C-58 14.66 -58 15.32 -58 16 C-51.73 16 -45.46 16 -39 16 C-39 15.34 -39 14.68 -39 14 C-37.865625 13.87625 -36.73125 13.7525 -35.5625 13.625 C-34.386875 13.41875 -33.21125 13.2125 -32 13 C-31.67 12.34 -31.34 11.68 -31 11 C-27.5 10.5 -27.5 10.5 -24 10 C-23.67 9.34 -23.34 8.68 -23 8 C-22.28070312 8.19078125 -21.56140625 8.3815625 -20.8203125 8.578125 C-17.69424618 9.04573603 -15.87239925 8.68496857 -12.875 7.75 C-12.02679687 7.49734375 -11.17859375 7.2446875 -10.3046875 6.984375 C-7.91074558 5.96187777 -6.75036218 4.87906528 -5 3 C-3.67139075 2.64830932 -2.33841672 2.31229724 -1 2 C-0.67 1.34 -0.34 0.68 0 0 Z " fill="#9BC64B" transform="translate(817,201)"/>
<path d="M0 0 C14.85 0 29.7 0 45 0 C44.22953734 4.62277597 43.48789792 7.6614049 41.71484375 11.8359375 C41.26689453 12.89941406 40.81894531 13.96289062 40.35742188 15.05859375 C39.88884766 16.15300781 39.42027344 17.24742188 38.9375 18.375 C38.22883789 20.05142578 38.22883789 20.05142578 37.50585938 21.76171875 C36.3429918 24.51031485 35.17421814 27.25623832 34 30 C32.84058962 26.52176885 33.29179116 24.54104422 34 21 C33.34 21 32.68 21 32 21 C32.33 19.02 32.66 17.04 33 15 C34.98 15 36.96 15 39 15 C38.505 12.03 38.505 12.03 38 9 C38.99 8.67 39.98 8.34 41 8 C41.33 6.35 41.66 4.7 42 3 C37.01953488 2.97512829 32.03910658 2.95705919 27.05859375 2.94506836 C25.36718109 2.94006513 23.67577269 2.93326048 21.984375 2.92456055 C19.54165589 2.91231815 17.09899438 2.90673145 14.65625 2.90234375 C13.91008423 2.89718246 13.16391846 2.89202118 12.3951416 2.88670349 C7.51244027 2.88619138 2.83484201 3.30964954 -2 4 C-1.34 2.68 -0.68 1.36 0 0 Z " fill="#5E9B3C" transform="translate(474,49)"/>
<path d="M0 0 C0.33 0 0.66 0 1 0 C1 29.04 1 58.08 1 88 C21.35039226 88.61388934 21.35039226 88.61388934 40.0625 82.90234375 C42.02587699 81.98794842 43.88783942 81.45732048 46 81 C45 84 45 84 43.3984375 85.1328125 C38.88994799 87.34353902 35.05968771 88.52267097 30 89 C28.33034549 89.31802943 26.66321482 89.64984951 25 90 C16.82849437 91.63430113 8.32293616 90.41614681 0 90 C0 60.3 0 30.6 0 0 Z " fill="#16603A" transform="translate(83,89)"/>
<path d="M0 0 C1.48501473 0.01199837 2.9699617 0.03535145 4.4546814 0.06729126 C5.26451981 0.07675278 6.07435822 0.08621429 6.90873718 0.09596252 C9.59273507 0.12971303 12.27627789 0.17780794 14.96005249 0.22598267 C16.81806235 0.2521423 18.67608497 0.27740991 20.53411865 0.30181885 C25.43006502 0.36854326 30.32574391 0.44742004 35.22146606 0.52877808 C40.21495275 0.60962664 45.20859658 0.67905121 50.20223999 0.74942017 C60.00451174 0.88924361 69.80653896 1.04189808 79.60848999 1.20254517 C79.60848999 1.53254517 79.60848999 1.86254517 79.60848999 2.20254517 C52.54848999 2.53254517 25.48848999 2.86254517 -2.39151001 3.20254517 C-2.72151001 11.12254517 -3.05151001 19.04254517 -3.39151001 27.20254517 C-1.74151001 27.20254517 -0.09151001 27.20254517 1.60848999 27.20254517 C-0.39151001 29.20254517 -0.39151001 29.20254517 -3.01651001 29.32754517 C-3.80026001 29.28629517 -4.58401001 29.24504517 -5.39151001 29.20254517 C-5.39151001 29.86254517 -5.39151001 30.52254517 -5.39151001 31.20254517 C-6.38151001 30.87254517 -7.37151001 30.54254517 -8.39151001 30.20254517 C-7.73151001 30.20254517 -7.07151001 30.20254517 -6.39151001 30.20254517 C-6.37169067 29.36481567 -6.35187134 28.52708618 -6.33145142 27.66397095 C-6.25340389 24.55888683 -6.16671366 21.45419978 -6.0741272 18.34951782 C-6.01696965 16.34367545 -5.96982405 14.33755599 -5.92276001 12.33145142 C-5.88408813 11.07461548 -5.84541626 9.81777954 -5.80557251 8.52285767 C-5.77415161 7.36028442 -5.74273071 6.19771118 -5.71035767 4.99990845 C-5.22530854 0.74440084 -4.22646259 0.25240957 0 0 Z " fill="#3E8140" transform="translate(256.3915100097656,85.79745483398438)"/>
<path d="M0 0 C10.301721 4.81518645 19.65142742 14.00927008 25 24 C25 24.66 25 25.32 25 26 C22.1875 26 22.1875 26 19 25 C17.96233485 23.00785804 17.365202 21.03014921 16.71484375 18.8828125 C16.1144778 16.79951507 16.1144778 16.79951507 13.9375 15.4375 C11.9325719 14.76986497 11.9325719 14.76986497 10 16 C10 15.34 10 14.68 10 14 C9.34 13.67 8.68 13.34 8 13 C8 11.68 8 10.36 8 9 C7.01 9 6.02 9 5 9 C4.67 9.66 4.34 10.32 4 11 C2.68 9.68 1.36 8.36 0 7 C0.33 6.34 0.66 5.68 1 5 C0.72057545 3.32345271 0.39171753 1.65391846 0 0 Z " fill="#93C82C" transform="translate(816,61)"/>
<path d="M0 0 C0.33 0 0.66 0 1 0 C2.24747472 6.93983512 3.24793547 13.77688679 3.65625 20.8203125 C3.8133823 23.20559599 3.8133823 23.20559599 6 25 C5.34 25.66 4.68 26.32 4 27 C3.80119628 29.88180099 3.80119628 29.88180099 4.8125 31.875 C4.874375 32.57625 4.93625 33.2775 5 34 C2.625 36.5625 2.625 36.5625 0 39 C-0.33 39.99 -0.66 40.98 -1 42 C-1.66 42 -2.32 42 -3 42 C-3.12375 42.7425 -3.2475 43.485 -3.375 44.25 C-4.4129474 48.81696854 -5.2189816 50.43766675 -9.125 53.25 C-10.07375 53.8275 -11.0225 54.405 -12 55 C-12.66 54.67 -13.32 54.34 -14 54 C-13.46890625 53.45472656 -12.9378125 52.90945312 -12.390625 52.34765625 C-1.64405937 40.87550134 0.39941145 29.15935036 0.140625 13.8046875 C-0.01892573 9.48795385 -0.47388961 5.28404176 -1 1 C-0.67 0.67 -0.34 0.34 0 0 Z " fill="#93C03B" transform="translate(810,115)"/>
<path d="M0 0 C0.78375 0.185625 1.5675 0.37125 2.375 0.5625 C4.97089775 1.25962266 4.97089775 1.25962266 7 0 C2.25013866 13.1252207 -10.10753037 23.44939378 -22 30 C-22.99 30.33 -23.98 30.66 -25 31 C-25 30.01 -25 29.02 -25 28 C-23.35 27.67 -21.7 27.34 -20 27 C-20 26.34 -20 25.68 -20 25 C-19.01 25 -18.02 25 -17 25 C-16.67 24.01 -16.34 23.02 -16 22 C-13.9375 21.3125 -13.9375 21.3125 -12 21 C-11.67 19.35 -11.34 17.7 -11 16 C-9.68 15.67 -8.36 15.34 -7 15 C-7.33 14.01 -7.66 13.02 -8 12 C-6.02 11.67 -4.04 11.34 -2 11 C-1.664061 9.5422647 -1.33133376 8.08378894 -1 6.625 C-0.814375 5.81289062 -0.62875 5.00078125 -0.4375 4.1640625 C0.06605239 2.04125049 0.06605239 2.04125049 0 0 Z " fill="#20723C" transform="translate(169,176)"/>
<path d="M0 0 C0.33 0 0.66 0 1 0 C1 7.59 1 15.18 1 23 C42.085 23.495 42.085 23.495 84 24 C83.505 25.485 83.505 25.485 83 27 C83 26.34 83 25.68 83 25 C41.42 25.495 41.42 25.495 -1 26 C-1.33 25.01 -1.66 24.02 -2 23 C-1.67 22.67 -1.34 22.34 -1 22 C-0.84285346 20.36743242 -0.74914586 18.72864662 -0.68359375 17.08984375 C-0.62075195 15.60581055 -0.62075195 15.60581055 -0.55664062 14.09179688 C-0.49766602 12.53041992 -0.49766602 12.53041992 -0.4375 10.9375 C-0.39431641 9.89271484 -0.35113281 8.84792969 -0.30664062 7.77148438 C-0.20018775 5.18113116 -0.0981724 2.59067814 0 0 Z " fill="#3A813E" transform="translate(252,154)"/>
<path d="M0 0 C0.99 0.33 1.98 0.66 3 1 C4.1875 3.5625 4.1875 3.5625 5 6 C10.17768847 6.14861989 15.35412901 6.25734045 20.53344727 6.32958984 C22.29408399 6.35971388 24.05457122 6.40062296 25.81469727 6.45263672 C28.34949626 6.52565267 30.88230799 6.55949741 33.41796875 6.5859375 C34.59325386 6.63238907 34.59325386 6.63238907 35.7922821 6.67977905 C40.05887252 6.70645932 40.05887252 6.70645932 43.64321899 4.62432861 C45.2175556 2.81062393 45.2175556 2.81062393 47 0 C47.66 0.33 48.32 0.66 49 1 C47.68 3.64 46.36 6.28 45 9 C31.47 9 17.94 9 4 9 C0 1 0 1 0 0 Z " fill="#579140" transform="translate(407,208)"/>
<path d="M0 0 C14.85 0 29.7 0 45 0 C45.495 1.98 45.495 1.98 46 4 C45.505 3.01 45.505 3.01 45 2 C24.21 2.495 24.21 2.495 3 3 C3.66 4.98 4.32 6.96 5 9 C4.625 11.375 4.625 11.375 4 13 C3.32694982 11.39850114 2.66177773 9.79368971 2 8.1875 C1.62875 7.29417969 1.2575 6.40085937 0.875 5.48046875 C0 3 0 3 0 0 Z " fill="#4C8B40" transform="translate(344,49)"/>
<path d="M0 0 C2.475 0.495 2.475 0.495 5 1 C5 1.66 5 2.32 5 3 C5.99 2.67 6.98 2.34 8 2 C9.24546405 4.49092811 8.7767578 5.41080733 8 8 C8.66 8 9.32 8 10 8 C10 8.66 10 9.32 10 10 C10.598125 10.2475 11.19625 10.495 11.8125 10.75 C14 12 14 12 15.3203125 14.046875 C16.84538187 16.22829745 16.84538187 16.22829745 19.41015625 16.46875 C21.18098922 16.48961401 22.95182256 16.51044725 24.72265625 16.53125 C27 17 27 17 28.30859375 18.78125 C29 21 29 21 29 25 C16.76521748 20.44951949 7.53682634 11.39494749 0 1 C0 0.67 0 0.34 0 0 Z " fill="#7FB438" transform="translate(695,183)"/>
<path d="M0 0 C0 2.8996083 -0.21438138 5.21462489 -1 8 C-1.99 8.66 -2.98 9.32 -4 10 C-3.67 10.66 -3.34 11.32 -3 12 C-3.66 12 -4.32 12 -5 12 C-4.67 13.65 -4.34 15.3 -4 17 C-5.051875 17.4640625 -5.051875 17.4640625 -6.125 17.9375 C-10.21377863 20.87075423 -12.40584653 24.74772782 -15 29 C-16 27 -16 27 -15.25 24.56640625 C-11.47670966 15.4987179 -7.215979 6.82123179 0 0 Z " fill="#7FAC3D" transform="translate(701,75)"/>
<path d="M0 0 C0.99 0.33 1.98 0.66 3 1 C3.33 3.31 3.66 5.62 4 8 C3.34 8 2.68 8 2 8 C1.80664062 9.09699219 1.61328125 10.19398438 1.4140625 11.32421875 C1.15131825 12.77869582 0.88828199 14.23312017 0.625 15.6875 C0.43550781 16.7693457 0.43550781 16.7693457 0.2421875 17.87304688 C-0.33980731 21.05946844 -0.95014444 23.87603031 -2.1640625 26.89453125 C-2.43992188 27.58933594 -2.71578125 28.28414062 -3 29 C-2.67 29.66 -2.34 30.32 -2 31 C-2.53109375 31.45890625 -3.0621875 31.9178125 -3.609375 32.390625 C-7.18324699 35.49493717 -10.71854059 38.58181312 -14 42 C-14.66 41.67 -15.32 41.34 -16 41 C-15.32904297 40.41605469 -15.32904297 40.41605469 -14.64453125 39.8203125 C-5.51096596 31.36835656 -2.0536747 20.74023011 -0.875 8.625 C-0.74544922 7.37783203 -0.74544922 7.37783203 -0.61328125 6.10546875 C-0.40281157 4.07092853 -0.20056686 2.0355403 0 0 Z " fill="#1E6B3D" transform="translate(145,128)"/>
<path d="M0 0 C0.99 0 1.98 0 3 0 C0.6065288 7.49848287 -2.23663411 14.7674207 -5.1875 22.0625 C-5.88262695 23.79016602 -5.88262695 23.79016602 -6.59179688 25.55273438 C-7.7254972 28.36945374 -8.86161501 31.18517147 -10 34 C-11.71074208 30.77011895 -12.55509037 28.70060244 -12 25 C-10.0625 22.875 -10.0625 22.875 -8 21 C-7.67 20.01 -7.34 19.02 -7 18 C-6.34 18 -5.68 18 -5 18 C-4.855625 16.906875 -4.71125 15.81375 -4.5625 14.6875 C-4 11 -4 11 -3 8 C-2.64763503 6.00326516 -2.31165441 4.00349261 -2 2 C-1.34 2 -0.68 2 0 2 C0 1.34 0 0.68 0 0 Z " fill="#5A9B3C" transform="translate(492,110)"/>
<path d="M0 0 C0.33 0 0.66 0 1 0 C1 5.94 1 11.88 1 18 C1.99 18.33 2.98 18.66 4 19 C4.33 19.99 4.66 20.98 5 22 C3.68 22 2.36 22 1 22 C1 28.27 1 34.54 1 41 C0.67 41 0.34 41 0 41 C-2.11830565 27.16973997 -2.54954171 13.8372563 0 0 Z " fill="#7CB23A" transform="translate(682,112)"/>
<path d="M0 0 C2 1 2 1 2.8515625 2.9609375 C3.10679687 3.75757813 3.36203125 4.55421875 3.625 5.375 C3.88539063 6.16648438 4.14578125 6.95796875 4.4140625 7.7734375 C5 10 5 10 5 13 C6.423125 13.433125 6.423125 13.433125 7.875 13.875 C11 15 11 15 13 17 C12.7018576 18.34164079 12.35858516 19.67323492 12 21 C11.96111651 23.33300933 11.9551365 25.66709801 12 28 C8.31919139 24.79721848 6.71808214 21.61208479 4.875 17.125 C4.37742187 15.93132812 3.87984375 14.73765625 3.3671875 13.5078125 C0 4.86857143 0 4.86857143 0 0 Z " fill="#7BB334" transform="translate(683,154)"/>
<path d="M0 0 C0.99 0.66 1.98 1.32 3 2 C0.53345465 3.50625002 -1.93959301 4.99897424 -4.42578125 6.47265625 C-6.2333546 7.54513149 -8.02796064 8.63961996 -9.8125 9.75 C-14.19841728 11.46996756 -18.61129709 11.97026878 -23.26953125 12.5703125 C-25.9070879 12.71089205 -25.9070879 12.71089205 -27 14 C-28.66617115 14.04063832 -30.33388095 14.042721 -32 14 C-31.67 13.01 -31.34 12.02 -31 11 C-29.865625 10.87625 -28.73125 10.7525 -27.5625 10.625 C-26.386875 10.41875 -25.21125 10.2125 -24 10 C-23.67 9.34 -23.34 8.68 -23 8 C-22.28070312 8.19078125 -21.56140625 8.3815625 -20.8203125 8.578125 C-17.69424618 9.04573603 -15.87239925 8.68496857 -12.875 7.75 C-12.02679687 7.49734375 -11.17859375 7.2446875 -10.3046875 6.984375 C-7.91074558 5.96187777 -6.75036218 4.87906528 -5 3 C-3.67139075 2.64830932 -2.33841672 2.31229724 -1 2 C-0.67 1.34 -0.34 0.68 0 0 Z " fill="#91C62B" transform="translate(817,201)"/>
<path d="M0 0 C10.17684615 2.80231995 18.24629318 7.92052856 26 15 C25.01 15.495 25.01 15.495 24 16 C19.75351291 14.283335 17.65939232 12.62644408 15 9 C13.00339546 8.10417827 13.00339546 8.10417827 11 8 C10.01 8.495 10.01 8.495 9 9 C9 8.01 9 7.02 9 6 C8.01 5.67 7.02 5.34 6 5 C5.01 5.99 4.02 6.98 3 8 C2.34 7.67 1.68 7.34 1 7 C1.33 5.35 1.66 3.7 2 2 C1.34 2 0.68 2 0 2 C0 1.34 0 0.68 0 0 Z " fill="#1A6739" transform="translate(135,55)"/>
<path d="M0 0 C0.66 0.33 1.32 0.66 2 1 C1.49339844 2.01707031 1.49339844 2.01707031 0.9765625 3.0546875 C-4.39900556 14.27191333 -5.37713128 24.70653839 -6 37 C-6.33 37 -6.66 37 -7 37 C-7.05437005 34.14557247 -7.09384974 31.29219924 -7.125 28.4375 C-7.14175781 27.63763672 -7.15851562 26.83777344 -7.17578125 26.01367188 C-7.21723982 20.93499665 -6.64056075 16.81188094 -5 12 C-5.66 11.67 -6.32 11.34 -7 11 C-6.01 11 -5.02 11 -4 11 C-4.49831724 7.31245243 -5.10067643 5.39509338 -8 3 C-6.02253397 2.26919734 -4.01927511 1.60578253 -2 1 C-1.34 1.33 -0.68 1.66 0 2 C0 1.34 0 0.68 0 0 Z " fill="#84B339" transform="translate(729,103)"/>
<path d="M0 0 C0.99 0.33 1.98 0.66 3 1 C2.34 1 1.68 1 1 1 C0.67 9.58 0.34 18.16 0 27 C1.65 27 3.3 27 5 27 C3 29 3 29 0.375 29.125 C-0.40875 29.08375 -1.1925 29.0425 -2 29 C-2 29.66 -2 30.32 -2 31 C-2.99 30.67 -3.98 30.34 -5 30 C-4.34 30 -3.68 30 -3 30 C-2.98018066 29.16227051 -2.96036133 28.32454102 -2.93994141 27.46142578 C-2.86189388 24.35634166 -2.77520365 21.25165461 -2.68261719 18.14697266 C-2.62545964 16.14113029 -2.57831404 14.13501082 -2.53125 12.12890625 C-2.49257812 10.87207031 -2.45390625 9.61523438 -2.4140625 8.3203125 C-2.3826416 7.15773926 -2.3512207 5.99516602 -2.31884766 4.79736328 C-2 2 -2 2 0 0 Z " fill="#32793B" transform="translate(253,86)"/>
<path d="M0 0 C0.33 0.66 0.66 1.32 1 2 C3.97 2 6.94 2 10 2 C9.67 2.66 9.34 3.32 9 4 C6.38242256 4.37953367 3.81912535 4.65434099 1.1875 4.875 C-9.10805453 5.9138424 -18.20413636 8.40263223 -27 14 C-27 12 -27 12 -25.625 10 C-21.78663702 7.07553297 -17.70105271 6.68183207 -13 6 C-13 5.34 -13 4.68 -13 4 C-9.7 3.67 -6.4 3.34 -3 3 C-3 2.34 -3 1.68 -3 1 C-2.01 0.67 -1.02 0.34 0 0 Z " fill="#92BF3F" transform="translate(763,83)"/>
<path d="M0 0 C0.33 0 0.66 0 1 0 C1.85875277 3.71515039 2.12861967 7.15505725 2.1328125 10.96484375 C2.13410156 12.09470703 2.13539063 13.22457031 2.13671875 14.38867188 C2.13285156 15.55978516 2.12898437 16.73089844 2.125 17.9375 C2.12886719 19.10474609 2.13273438 20.27199219 2.13671875 21.47460938 C2.13542969 22.60576172 2.13414062 23.73691406 2.1328125 24.90234375 C2.13168457 25.92835693 2.13055664 26.95437012 2.12939453 28.01147461 C1.99657973 31.07899527 1.56609771 33.98484103 1 37 C0.67 37 0.34 37 0 37 C0.01160156 36.32453125 0.02320313 35.6490625 0.03515625 34.953125 C0.04417969 34.06109375 0.05320313 33.1690625 0.0625 32.25 C0.07990234 30.92742187 0.07990234 30.92742187 0.09765625 29.578125 C0.09939458 27.09557057 0.09939458 27.09557057 -0.49780273 25.14599609 C-1.06324714 22.72973146 -1.1295056 20.56658605 -1.1328125 18.0859375 C-1.13410156 17.16039062 -1.13539063 16.23484375 -1.13671875 15.28125 C-1.13091797 13.84265625 -1.13091797 13.84265625 -1.125 12.375 C-1.12886719 11.40820312 -1.13273438 10.44140625 -1.13671875 9.4453125 C-1.13542969 8.52234375 -1.13414062 7.599375 -1.1328125 6.6484375 C-1.13168457 5.80458496 -1.13055664 4.96073242 -1.12939453 4.09130859 C-1 2 -1 2 0 0 Z " fill="#256D3B" transform="translate(185,115)"/>
<path d="M0 0 C5.4191857 4.50014251 7.85055871 13.52314623 8.8125 20.3125 C8.874375 21.199375 8.93625 22.08625 9 23 C6.20127563 20.47211993 4.54226981 18.79588866 4 15 C3.01 16.485 3.01 16.485 2 18 C-0.125 10.375 -0.125 10.375 1 7 C0.72230092 4.6593935 0.39460023 2.32375692 0 0 Z " fill="#1E723A" transform="translate(176,90)"/>
<path d="M0 0 C1.25361328 0.00322266 2.50722656 0.00644531 3.79882812 0.00976562 C5.76432617 0.02233398 5.76432617 0.02233398 7.76953125 0.03515625 C9.10481606 0.04017308 10.44010266 0.04473566 11.77539062 0.04882812 C15.04431598 0.0606293 18.31315116 0.07709328 21.58203125 0.09765625 C21.58203125 0.42765625 21.58203125 0.75765625 21.58203125 1.09765625 C9.20703125 1.59265625 9.20703125 1.59265625 -3.41796875 2.09765625 C-4.15084692 5.76204709 -4.81784511 9.41118247 -5.41796875 13.09765625 C-6.07796875 12.76765625 -6.73796875 12.43765625 -7.41796875 12.09765625 C-8.05078125 9.59375 -8.05078125 9.59375 -8.54296875 6.53515625 C-8.71054687 5.52324219 -8.878125 4.51132812 -9.05078125 3.46875 C-9.17195313 2.68628906 -9.293125 1.90382812 -9.41796875 1.09765625 C-6.06061738 -0.02146087 -3.53591489 -0.01599961 0 0 Z " fill="#37922A" transform="translate(356.41796875,50.90234375)"/>
<path d="M0 0 C0.33 0.66 0.66 1.32 1 2 C-2.14833822 8.82986275 -6.87347998 14.5701356 -12 20 C-13.31223496 16.06329512 -12.24296256 13.87511856 -11 10 C-9.35 10 -7.7 10 -6 10 C-5.814375 9.1646875 -5.814375 9.1646875 -5.625 8.3125 C-4.92924316 5.7381997 -4.16814704 3.40119114 -3 1 C-2.01 0.67 -1.02 0.34 0 0 Z " fill="#9DC441" transform="translate(844,172)"/>
<path d="M0 0 C0.33 0 0.66 0 1 0 C1.05423638 1.91635217 1.09289963 3.83314925 1.125 5.75 C1.14820313 6.81734375 1.17140625 7.8846875 1.1953125 8.984375 C1.00487687 11.92470106 0.52670104 13.52361878 -1 16 C-1.66 16 -2.32 16 -3 16 C-3.12375 16.7425 -3.2475 17.485 -3.375 18.25 C-4.4129474 22.81696854 -5.2189816 24.43766675 -9.125 27.25 C-10.07375 27.8275 -11.0225 28.405 -12 29 C-12.66 28.67 -13.32 28.34 -14 28 C-13.46890625 27.45472656 -12.9378125 26.90945312 -12.390625 26.34765625 C-4.79764523 18.24201179 -1.72829999 10.89283807 0 0 Z " fill="#97C043" transform="translate(810,141)"/>
<path d="M0 0 C0 3 0 3 -1.3125 4.625 C-3.77859504 8.09580043 -4.78019494 11.95128533 -6 16 C-6.66 16 -7.32 16 -8 16 C-7.67 19.96 -7.34 23.92 -7 28 C-6.34 28 -5.68 28 -5 28 C-5.33 28.99 -5.66 29.98 -6 31 C-9.17543553 27.82456447 -9.22876794 24.75134582 -9.375 20.4375 C-9.31921354 12.76686174 -6.72266721 7.09059521 -1.6875 1.375 C-1.130625 0.92125 -0.57375 0.4675 0 0 Z " fill="#639B3D" transform="translate(545,174)"/>
<path d="M0 0 C2 1 4 2 6 3 C6.33 2.34 6.66 1.68 7 1 C7.99 1.33 8.98 1.66 10 2 C9.979375 3.11375 9.95875 4.2275 9.9375 5.375 C9.73619282 8.83215921 9.73619282 8.83215921 11 11 C10.67 11.66 10.34 12.32 10 13 C10.66 13 11.32 13 12 13 C12 14.98 12 16.96 12 19 C10.40633273 16.6094991 9.04189948 14.27350653 7.6875 11.75 C5.39849988 7.58756228 2.83570133 3.80794179 0 0 Z " fill="#98C43C" transform="translate(797,96)"/>
<path d="M0 0 C0.33 0 0.66 0 1 0 C1.19335938 0.78503906 1.38671875 1.57007813 1.5859375 2.37890625 C2.96653221 7.9491275 4.37388447 13.49622437 6 19 C0.33846154 16.66153846 0.33846154 16.66153846 -1.375 13.3125 C-1.58125 12.549375 -1.7875 11.78625 -2 11 C-1.34 11 -0.68 11 0 11 C-0.185625 10.113125 -0.37125 9.22625 -0.5625 8.3125 C-0.98042484 5.14821189 -0.80777742 3.05160358 0 0 Z " fill="#7FBB29" transform="translate(723,141)"/>
<path d="M0 0 C5.64842118 3.89113459 7.36058473 7.3991964 9 14 C8.34 14 7.68 14 7 14 C7 15.32 7 16.64 7 18 C6.34 18 5.68 18 5 18 C5 17.01 5 16.02 5 15 C4.34 14.67 3.68 14.34 3 14 C3.2475 13.319375 3.495 12.63875 3.75 11.9375 C4.11652113 7.63087671 2.26398048 5.63608986 0 2 C0 1.34 0 0.68 0 0 Z " fill="#68A732" transform="translate(575,174)"/>
<path d="M0 0 C0.33 0 0.66 0 1 0 C1.05389087 1.95803507 1.09274217 3.91648909 1.125 5.875 C1.14820313 6.96554688 1.17140625 8.05609375 1.1953125 9.1796875 C1 12 1 12 -1 14 C-1.6425235 16.06874034 -1.6425235 16.06874034 -2 18 C-2.99 18 -3.98 18 -5 18 C-5.33 18.99 -5.66 19.98 -6 21 C-6.66 20.67 -7.32 20.34 -8 20 C-7.75765625 19.47792969 -7.5153125 18.95585937 -7.265625 18.41796875 C-4.5188243 12.38557183 -2.19691555 6.25186075 0 0 Z " fill="#50943C" transform="translate(438,147)"/>
<path d="M0 0 C0.99 0.66 1.98 1.32 3 2 C3.66 1.34 4.32 0.68 5 0 C4.37321829 3.66172475 3.35548154 6.8818995 1.9375 10.3125 C1.57527344 11.19550781 1.21304687 12.07851562 0.83984375 12.98828125 C0.42412109 13.98408203 0.42412109 13.98408203 0 15 C-2.77490376 12.44141938 -3.60914295 10.81085622 -4 7 C-3.67 6.34 -3.34 5.68 -3 5 C-2.34 5 -1.68 5 -1 5 C-0.67 5.99 -0.34 6.98 0 8 C0.33 6.68 0.66 5.36 1 4 C0.34 3.67 -0.32 3.34 -1 3 C-0.67 2.01 -0.34 1.02 0 0 Z " fill="#589A3A" transform="translate(476,144)"/>
<path d="M0 0 C0.66 0.99 1.32 1.98 2 3 C1.5625 5.0625 1.5625 5.0625 1 7 C1.33 7.66 1.66 8.32 2 9 C1.67 9.99 1.34 10.98 1 12 C1.65035814 13.34136367 2.3162955 14.67532254 3 16 C2.67 16.66 2.34 17.32 2 18 C1.01 17.67 0.02 17.34 -1 17 C-1.96003573 14.1198928 -2.07845802 12.41400117 -2 9.4375 C-1.87044355 6.08718018 -1.87044355 6.08718018 -3 3 C-2.34 3 -1.68 3 -1 3 C-0.67 2.01 -0.34 1.02 0 0 Z " fill="#91CA25" transform="translate(813,110)"/>
<path d="M0 0 C0.66 0.33 1.32 0.66 2 1 C1.67 3.31 1.34 5.62 1 8 C0.34 8 -0.32 8 -1 8 C-0.7525 8.9075 -0.505 9.815 -0.25 10.75 C0 14 0 14 -1.8125 16.125 C-2.534375 16.74375 -3.25625 17.3625 -4 18 C-5.23512079 20.13309192 -5.23512079 20.13309192 -6 22 C-7 20 -7 20 -6.47094727 17.93701172 C-6.17244873 17.10959473 -5.8739502 16.28217773 -5.56640625 15.4296875 C-5.24736328 14.53378906 -4.92832031 13.63789062 -4.59960938 12.71484375 C-4.25736328 11.77769531 -3.91511719 10.84054688 -3.5625 9.875 C-3.22412109 8.93011719 -2.88574219 7.98523438 -2.53710938 7.01171875 C-1.6981094 4.67197234 -0.85215708 2.33497991 0 0 Z " fill="#56953B" transform="translate(461,82)"/>
<path d="M0 0 C0.99 1.32 1.98 2.64 3 4 C1.37248625 5.62751375 -0.25632194 7.23978504 -1.9375 8.8125 C-4.32499225 11.34468875 -6.13455315 14.06858353 -8 17 C-9 15 -9 15 -8.44140625 13.0546875 C-8.00634766 11.97574219 -8.00634766 11.97574219 -7.5625 10.875 C-7.27503906 10.15054688 -6.98757813 9.42609375 -6.69140625 8.6796875 C-6.46324219 8.12539062 -6.23507812 7.57109375 -6 7 C-5.01 7 -4.02 7 -3 7 C-2.814375 5.824375 -2.814375 5.824375 -2.625 4.625 C-2 2 -2 2 0 0 Z " fill="#7AB924" transform="translate(694,87)"/>
<path d="M0 0 C0 0.66 0 1.32 0 2 C-3.25955477 3.91237536 -5.93725498 4.32717087 -9.6875 4.5625 C-13.15595857 4.50754728 -13.15595857 4.50754728 -16 6 C-21.73611111 6.27314815 -21.73611111 6.27314815 -24 6 C-24.66 5.34 -25.32 4.68 -26 4 C-25.37955811 3.91435791 -24.75911621 3.82871582 -24.11987305 3.74047852 C-21.30866566 3.3507567 -18.49808577 2.9566787 -15.6875 2.5625 C-14.71103516 2.42779297 -13.73457031 2.29308594 -12.72851562 2.15429688 C-11.79072266 2.02216797 -10.85292969 1.89003906 -9.88671875 1.75390625 C-9.02264404 1.63345947 -8.15856934 1.5130127 -7.26831055 1.38891602 C-4.7437148 0.9560583 -2.56978731 0 0 0 Z " fill="#8CB842" transform="translate(788,175)"/>
<path d="M0 0 C1.72251754 4.0845326 0.07280563 7.36973696 -1.4375 11.25 C-1.68048828 11.8996875 -1.92347656 12.549375 -2.17382812 13.21875 C-2.77285994 14.81616817 -3.38514321 16.40860594 -4 18 C-4.33 18 -4.66 18 -5 18 C-4.979375 17.278125 -4.95875 16.55625 -4.9375 15.8125 C-4.99820559 13.08074862 -5.39258535 10.65743909 -6 8 C-4.35 7.67 -2.7 7.34 -1 7 C-1.309375 5.824375 -1.309375 5.824375 -1.625 4.625 C-1.74875 3.75875 -1.8725 2.8925 -2 2 C-1.34 1.34 -0.68 0.68 0 0 Z " fill="#9BCA38" transform="translate(850,154)"/>
<path d="M0 0 C1.70512741 2.55769112 2.68063145 4.53999311 3.7265625 7.37890625 C4.0359375 8.21744141 4.3453125 9.05597656 4.6640625 9.91992188 C4.98117187 10.79197266 5.29828125 11.66402344 5.625 12.5625 C5.94984375 13.43841797 6.2746875 14.31433594 6.609375 15.21679688 C9 21.74079241 9 21.74079241 9 24 C8.01 23.67 7.02 23.34 6 23 C6 21.68 6 20.36 6 19 C5.01 18.67 4.02 18.34 3 18 C2.90912109 17.11248047 2.90912109 17.11248047 2.81640625 16.20703125 C2.37987629 12.09021792 1.91328654 8.04455467 1 4 C0.34 4 -0.32 4 -1 4 C-0.67 2.68 -0.34 1.36 0 0 Z " fill="#538F3D" transform="translate(422,142)"/>
<path d="M0 0 C2.31 0 4.62 0 7 0 C8.76462683 3.08809695 9 4.23312136 9 8 C5.6470016 6.82191948 3.2447471 5.80593388 1 3 C0.67 2.01 0.34 1.02 0 0 Z " fill="#83BB33" transform="translate(715,200)"/>
<path d="M0 0 C1.13665504 3.40996511 0.91583208 3.86305848 -0.43359375 7.01171875 C-0.75263672 7.76904297 -1.07167969 8.52636719 -1.40039062 9.30664062 C-1.74263672 10.09232422 -2.08488281 10.87800781 -2.4375 11.6875 C-2.77587891 12.48478516 -3.11425781 13.28207031 -3.46289062 14.10351562 C-4.3000701 16.07265607 -5.1489353 18.03682084 -6 20 C-7.03366148 16.25297715 -7.25733598 13.77200794 -6 10 C-5.34 9.67 -4.68 9.34 -4 9 C-4 7.35 -4 5.7 -4 4 C-3.01 4 -2.02 4 -1 4 C-0.67 2.68 -0.34 1.36 0 0 Z " fill="#58983E" transform="translate(474,159)"/>
<path d="M0 0 C15.57205121 -0.27213293 15.57205121 -0.27213293 21.75 5.625 C22.4925 6.40875 23.235 7.1925 24 8 C20.86263311 8 19.86354709 7.57122663 17.1875 6.125 C11.54267339 3.20987969 6.32685164 1.7592222 0 1 C0 0.67 0 0.34 0 0 Z " fill="#95BF44" transform="translate(773,87)"/>
<path d="M0 0 C6.15234375 -0.09765625 6.15234375 -0.09765625 8 0 C8.33 0.33 8.66 0.66 9 1 C11.34987262 1.23527773 13.70556039 1.41386417 16.0625 1.5625 C17.35285156 1.64628906 18.64320313 1.73007813 19.97265625 1.81640625 C21.47119141 1.90728516 21.47119141 1.90728516 23 2 C23 2.66 23 3.32 23 4 C14.7763806 4.38750039 7.8231062 3.58716898 0 1 C0 0.67 0 0.34 0 0 Z " fill="#90C144" transform="translate(736,213)"/>
<path d="M0 0 C1.24072266 0.00322266 2.48144531 0.00644531 3.75976562 0.00976562 C5.03658203 0.01814453 6.31339844 0.02652344 7.62890625 0.03515625 C9.58473633 0.04192383 9.58473633 0.04192383 11.58007812 0.04882812 C14.78390177 0.06056374 17.98762988 0.07698262 21.19140625 0.09765625 C21.19140625 0.42765625 21.19140625 0.75765625 21.19140625 1.09765625 C20.38920654 1.11747559 19.58700684 1.13729492 18.76049805 1.15771484 C15.13296448 1.2528512 11.5060158 1.36257705 7.87890625 1.47265625 C5.98495117 1.5190625 5.98495117 1.5190625 4.05273438 1.56640625 C2.23999023 1.62441406 2.23999023 1.62441406 0.390625 1.68359375 C-0.72481689 1.71501465 -1.84025879 1.74643555 -2.98950195 1.77880859 C-6.01228161 1.90290525 -6.01228161 1.90290525 -8.80859375 4.09765625 C-11.49609375 3.22265625 -11.49609375 3.22265625 -13.80859375 2.09765625 C-13.80859375 1.76765625 -13.80859375 1.43765625 -13.80859375 1.09765625 C-9.1564444 0.35031264 -4.70991433 -0.02170467 0 0 Z " fill="#92BC47" transform="translate(759.80859375,47.90234375)"/>
<path d="M0 0 C1.21386936 3.64160808 0.6674695 4.33165469 -0.9375 7.6875 C-1.31777344 8.49574219 -1.69804687 9.30398437 -2.08984375 10.13671875 C-2.39019531 10.75160156 -2.69054687 11.36648437 -3 12 C-3.99 11.67 -4.98 11.34 -6 11 C-6 10.34 -6 9.68 -6 9 C-5.34 8.67 -4.68 8.34 -4 8 C-4.65585189 4.39007621 -4.65585189 4.39007621 -6 1 C-4 0 -4 0 0 0 Z " fill="#217236" transform="translate(182,160)"/>
<path d="M0 0 C3.3566285 2.23775234 3.57996014 2.93320048 4.6875 6.625 C4.93886719 7.44226563 5.19023437 8.25953125 5.44921875 9.1015625 C5.72185547 10.04128906 5.72185547 10.04128906 6 11 C6.99 11 7.98 11 9 11 C9 14.63 9 18.26 9 22 C6.54958797 18.32438195 5.03953056 14.5142466 3.375 10.4375 C3.05015625 9.65697266 2.7253125 8.87644531 2.390625 8.07226562 C2.08382813 7.32525391 1.77703125 6.57824219 1.4609375 5.80859375 C1.18040527 5.12595459 0.89987305 4.44331543 0.61083984 3.73999023 C0 2 0 2 0 0 Z " fill="#478641" transform="translate(349,63)"/>
<path d="M0 0 C0.99 0 1.98 0 3 0 C2.41161801 4.84111765 0.92346884 8.96071195 -1.0625 13.375 C-1.34416016 14.01566406 -1.62582031 14.65632813 -1.91601562 15.31640625 C-2.60459421 16.88029659 -3.30144711 18.44053941 -4 20 C-4.99 19.67 -5.98 19.34 -7 19 C-6.34 19 -5.68 19 -5 19 C-4.96132813 17.98679687 -4.96132813 17.98679687 -4.921875 16.953125 C-4.44813278 9.5024519 -4.44813278 9.5024519 -1.9375 6.6875 C-0.9784375 5.8521875 -0.9784375 5.8521875 0 5 C0.33498301 2.33165034 0.33498301 2.33165034 0 0 Z " fill="#5E9B40" transform="translate(500,89)"/>
<path d="M0 0 C1.3609623 2.7219246 0.70366248 4.1831957 0.0625 7.125 C-0.13214844 8.03507812 -0.32679688 8.94515625 -0.52734375 9.8828125 C-0.68332031 10.58148438 -0.83929687 11.28015625 -1 12 C-3.375 12.625 -3.375 12.625 -6 13 C-6.66 12.34 -7.32 11.68 -8 11 C-7.360625 10.608125 -6.72125 10.21625 -6.0625 9.8125 C-3.51599688 7.57466392 -3.56988235 6.25647056 -3 3 C-1.4375 1.1875 -1.4375 1.1875 0 0 Z M-8 13 C-6 14 -6 14 -6 14 Z " fill="#79BA26" transform="translate(704,74)"/>
<path d="M0 0 C0.99 0 1.98 0 3 0 C1.13236819 5.72210596 -0.85289032 11.37661751 -3 17 C-4.30660357 12.70272603 -3.6596762 9.39784135 -3 5 C-2.01 4.67 -1.02 4.34 0 4 C0 2.68 0 1.36 0 0 Z " fill="#55953C" transform="translate(460,190)"/>
<path d="M0 0 C3 1 3 1 3.8125 2.625 C4.19943663 7.52619727 2.14946378 11.70107244 0 16 C0 10.72 0 5.44 0 0 Z " fill="#76B825" transform="translate(683,138)"/>
<path d="M0 0 C2.05264866 2.05264866 2.56528526 3.13767959 3.5078125 5.80859375 C3.77207031 6.55560547 4.03632813 7.30261719 4.30859375 8.07226562 C4.57800781 8.85279297 4.84742188 9.63332031 5.125 10.4375 C5.40214844 11.21416016 5.67929687 11.99082031 5.96484375 12.79101562 C8 18.61076047 8 18.61076047 8 22 C7.34 22 6.68 22 6 22 C5.82984375 21.38253906 5.6596875 20.76507813 5.484375 20.12890625 C3.95755743 14.79316611 2.15895755 9.87531018 -0.328125 4.91015625 C-1 3 -1 3 0 0 Z " fill="#488D3B" transform="translate(393,61)"/>
<path d="M0 0 C4.04420651 1.77945087 7.46078487 4.39529673 11 7 C8.3333581 8.33332095 6.83319697 7.67102033 4 7 C3.67 7.66 3.34 8.32 3 9 C2.01 8.67 1.02 8.34 0 8 C0.33 7.01 0.66 6.02 1 5 C0.60602665 2.36195411 0.60602665 2.36195411 0 0 Z " fill="#97C238" transform="translate(816,61)"/>
<path d="M0 0 C0.99 0.33 1.98 0.66 3 1 C2.67 2.98 2.34 4.96 2 7 C1.01 7 0.02 7 -1 7 C-2.0209375 7.309375 -2.0209375 7.309375 -3.0625 7.625 C-3.701875 7.74875 -4.34125 7.8725 -5 8 C-5.66 7.34 -6.32 6.68 -7 6 C-5.90716423 4.96704564 -4.80029421 3.94892165 -3.6875 2.9375 C-3.07261719 2.36902344 -2.45773437 1.80054688 -1.82421875 1.21484375 C-0.92123047 0.61349609 -0.92123047 0.61349609 0 0 Z " fill="#7DBB26" transform="translate(717,62)"/>
<path d="M0 0 C0.66 0 1.32 0 2 0 C2.268125 0.928125 2.53625 1.85625 2.8125 2.8125 C3.91148371 5.76240366 4.62418561 7.05615186 7 9 C6.01 9.495 6.01 9.495 5 10 C4.67 10.66 4.34 11.32 4 12 C1.25983305 9.97465921 0.97857261 8.88896716 0.3125 5.4375 C0 2 0 2 0 0 Z " fill="#3D9032" transform="translate(361,88)"/>
<path d="M0 0 C1.485 0.99 1.485 0.99 3 2 C3 3.32 3 4.64 3 6 C3.99 6.33 4.98 6.66 6 7 C6.66 10.96 7.32 14.92 8 19 C5.27227952 16.27227952 4.2539869 13.02994255 2.875 9.5 C2.59785156 8.81035156 2.32070313 8.12070313 2.03515625 7.41015625 C0 2.26712592 0 2.26712592 0 0 Z " fill="#4D8E43" transform="translate(377,133)"/>
<path d="M0 0 C0.99 0.66 1.98 1.32 3 2 C-7.37357631 8.51936219 -7.37357631 8.51936219 -13 10 C-12.67 9.01 -12.34 8.02 -12 7 C-10.35448038 6.28272222 -8.68577711 5.61674772 -7 5 C-6.34 4.34 -5.68 3.68 -5 3 C-4.319375 2.835 -3.63875 2.67 -2.9375 2.5 C-2.298125 2.335 -1.65875 2.17 -1 2 C-0.67 1.34 -0.34 0.68 0 0 Z " fill="#9EC63F" transform="translate(817,201)"/>
<path d="M0 0 C0.33 0 0.66 0 1 0 C1 7.59 1 15.18 1 23 C1.66 23.33 2.32 23.66 3 24 C1.02 24.99 1.02 24.99 -1 26 C-1.33 25.01 -1.66 24.02 -2 23 C-1.67 22.67 -1.34 22.34 -1 22 C-0.84285346 20.36743242 -0.74914586 18.72864662 -0.68359375 17.08984375 C-0.62075195 15.60581055 -0.62075195 15.60581055 -0.55664062 14.09179688 C-0.49766602 12.53041992 -0.49766602 12.53041992 -0.4375 10.9375 C-0.39431641 9.89271484 -0.35113281 8.84792969 -0.30664062 7.77148438 C-0.20018775 5.18113116 -0.0981724 2.59067814 0 0 Z " fill="#357343" transform="translate(252,154)"/>
<path d="M0 0 C0.66 0.33 1.32 0.66 2 1 C1.071875 1.763125 0.14375 2.52625 -0.8125 3.3125 C-2.55961642 4.75952348 -4.17206992 6.17821528 -5.75 7.8125 C-7 9 -7 9 -9 9 C-9 9.99 -9 10.98 -9 12 C-10.32 12.33 -11.64 12.66 -13 13 C-11.44533803 8.91667098 -8.74912156 6.91791007 -5.375 4.25 C-4.37210938 3.45078125 -3.36921875 2.6515625 -2.3359375 1.828125 C-1.17964844 0.92320313 -1.17964844 0.92320313 0 0 Z " fill="#87B244" transform="translate(715,62)"/>
<path d="M0 0 C0.66 0.33 1.32 0.66 2 1 C1.67373505 7.32278971 1.38495108 12.55464391 -2 18 C-2.33 18 -2.66 18 -3 18 C-3.125 15.625 -3.125 15.625 -3 13 C-2.34 12.34 -1.68 11.68 -1 11 C-0.53709779 8.33757179 -0.53709779 8.33757179 -0.375 5.375 C-0.30023437 4.37210938 -0.22546875 3.36921875 -0.1484375 2.3359375 C-0.09945312 1.56507813 -0.05046875 0.79421875 0 0 Z " fill="#689D3C" transform="translate(583,190)"/>
<path d="M0 0 C0.99 0 1.98 0 3 0 C1.90101298 3.29696105 1.05402613 4.04670589 -1.5625 6.1875 C-2.20316406 6.71730469 -2.84382812 7.24710938 -3.50390625 7.79296875 C-3.99761719 8.19128906 -4.49132812 8.58960938 -5 9 C-6.32 8.34 -7.64 7.68 -9 7 C-6 6 -6 6 -4 6 C-3.67 4.68 -3.34 3.36 -3 2 C-2.01 2 -1.02 2 0 2 C0 1.34 0 0.68 0 0 Z " fill="#9DC538" transform="translate(827,193)"/>
<path d="M0 0 C2.25 0.1875 2.25 0.1875 5 1 C6.37868281 2.62935241 7.71274093 4.29749607 9 6 C10.32567199 6.68177416 11.65753688 7.35191436 13 8 C13.33 8.99 13.66 9.98 14 11 C10.50004453 9.43810398 7.72827143 7.33666309 4.75 4.9375 C3.85796875 4.22464844 2.9659375 3.51179687 2.046875 2.77734375 C1.37140625 2.19082031 0.6959375 1.60429687 0 1 C0 0.67 0 0.34 0 0 Z " fill="#8FB83F" transform="translate(703,193)"/>
<path d="M0 0 C4.875 4.625 4.875 4.625 6 8 C7.3153341 8.70151152 8.65117592 9.36525925 10 10 C11.75 11.625 11.75 11.625 13 13 C9.05023297 12.77429903 8.08405267 12.09405894 5.375 9.0625 C4.59125 8.051875 3.8075 7.04125 3 6 C2.01 5.34 1.02 4.68 0 4 C0 2.68 0 1.36 0 0 Z " fill="#89B83F" transform="translate(729,160)"/>
<path d="M0 0 C1.485 0.99 1.485 0.99 3 2 C3 2.99 3 3.98 3 5 C3.66 5.33 4.32 5.66 5 6 C4.34 7.98 3.68 9.96 3 12 C2.34 11.34 1.68 10.68 1 10 C1.375 7.875 1.375 7.875 2 6 C1.34 6 0.68 6 0 6 C-0.33 6.99 -0.66 7.98 -1 9 C-1 7.68 -1 6.36 -1 5 C-0.34 5 0.32 5 1 5 C0.67 3.35 0.34 1.7 0 0 Z " fill="#95CD25" transform="translate(841,161)"/>
<path d="M0 0 C2.83222793 3.37169992 4.52103176 6.85888893 6 11 C5.6875 13.4375 5.6875 13.4375 5 15 C4.71125 14.195625 4.4225 13.39125 4.125 12.5625 C3.26737432 9.8673532 3.26737432 9.8673532 1 9 C0.5859375 6.93359375 0.5859375 6.93359375 0.375 4.4375 C0.30023437 3.61121094 0.22546875 2.78492187 0.1484375 1.93359375 C0.09945312 1.29550781 0.05046875 0.65742187 0 0 Z " fill="#99C141" transform="translate(843,90)"/>
<path d="M0 0 C3.48331435 3.01887244 4.79157144 5.56909529 6 10 C4 10 4 10 2 8.0625 C1.34 7.381875 0.68 6.70125 0 6 C-0.66 5.67 -1.32 5.34 -2 5 C-1.34 3.35 -0.68 1.7 0 0 Z " fill="#1F6E3C" transform="translate(170,80)"/>
<path d="M0 0 C2.36775721 2.36775721 2.99896496 4.29711338 4.125 7.4375 C4.47820312 8.40558594 4.83140625 9.37367187 5.1953125 10.37109375 C6 13 6 13 6 16 C5.34 16 4.68 16 4 16 C3.80664062 15.37351562 3.61328125 14.74703125 3.4140625 14.1015625 C3.15367187 13.28429687 2.89328125 12.46703125 2.625 11.625 C2.36976563 10.81289062 2.11453125 10.00078125 1.8515625 9.1640625 C1.10145717 6.83540815 1.10145717 6.83540815 -1 5 C-0.625 2.375 -0.625 2.375 0 0 Z " fill="#4F8D3E" transform="translate(405,95)"/>
<path d="M0 0 C4.3177458 0.50797009 8.03302114 1.19682779 12 3 C12 3.33 12 3.66 12 4 C9.36 4.33 6.72 4.66 4 5 C3.67 4.01 3.34 3.02 3 2 C2.01 2 1.02 2 0 2 C0 1.34 0 0.68 0 0 Z " fill="#94C33E" transform="translate(792,51)"/>
<path d="M0 0 C2 1 4 2 6 3 C6.33 2.34 6.66 1.68 7 1 C7.99 1.33 8.98 1.66 10 2 C9.34 3.32 8.68 4.64 8 6 C6.68 6 5.36 6 4 6 C1.75 3 1.75 3 0 0 Z " fill="#97C931" transform="translate(797,96)"/>
<path d="M0 0 C3.6875 -0.3125 3.6875 -0.3125 7 0 C6.67 0.99 6.34 1.98 6 3 C3.93359375 3.73046875 3.93359375 3.73046875 1.4375 4.1875 C0.61121094 4.34605469 -0.21507812 4.50460938 -1.06640625 4.66796875 C-2.02353516 4.83232422 -2.02353516 4.83232422 -3 5 C-1.9375 2.5 -1.9375 2.5 0 0 Z " fill="#4EA12A" transform="translate(473,52)"/>
<path d="M0 0 C0.99 0 1.98 0 3 0 C2.25 7.75 2.25 7.75 0 10 C-0.19412181 8.52168779 -0.38012131 7.04230684 -0.5625 5.5625 C-0.66691406 4.73878906 -0.77132813 3.91507813 -0.87890625 3.06640625 C-0.91886719 2.38449219 -0.95882813 1.70257813 -1 1 C-0.67 0.67 -0.34 0.34 0 0 Z " fill="#559C36" transform="translate(481,134)"/>
<path d="M0 0 C0.33 0 0.66 0 1 0 C1.78774617 8.03501094 1.78774617 8.03501094 -1.5 12.0625 C-2.325 12.701875 -3.15 13.34125 -4 14 C-3.52188823 12.22888156 -3.0424722 10.45811517 -2.5625 8.6875 C-2.29566406 7.70136719 -2.02882813 6.71523437 -1.75390625 5.69921875 C-1.21920575 3.78482474 -0.62855462 1.88566385 0 0 Z " fill="#569541" transform="translate(451,110)"/>
<path d="M0 0 C0 0.66 0 1.32 0 2 C-0.99 2 -1.98 2 -3 2 C-2.649375 2.9075 -2.29875 3.815 -1.9375 4.75 C-1 8 -1 8 -2 12 C-3.32 8.37 -4.64 4.74 -6 1 C-4 0 -4 0 0 0 Z " fill="#44893D" transform="translate(350,50)"/>
<path d="M0 0 C0.99 0.33 1.98 0.66 3 1 C1.375 7.75 1.375 7.75 -2 10 C-1.34 6.7 -0.68 3.4 0 0 Z " fill="#96C930" transform="translate(833,182)"/>
<path d="M0 0 C0.33 0.99 0.66 1.98 1 3 C1.66 3 2.32 3 3 3 C3.68707555 5.49064888 4 7.37886292 4 10 C1.525 9.01 1.525 9.01 -1 8 C-0.67 5.36 -0.34 2.72 0 0 Z " fill="#7BAF38" transform="translate(684,104)"/>
<path d="M0 0 C-0.33 1.98 -0.66 3.96 -1 6 C-2.32 5.01 -3.64 4.02 -5 3 C-5.99 3.495 -5.99 3.495 -7 4 C-7.66 3.67 -8.32 3.34 -9 3 C-9 2.34 -9 1.68 -9 1 C-5.8035914 -0.06546953 -3.34252724 -0.07427838 0 0 Z " fill="#88BE35" transform="translate(748,50)"/>
<path d="M0 0 C5.75 -0.125 5.75 -0.125 8 1 C7.67 1.99 7.34 2.98 7 4 C5.02 4 3.04 4 1 4 C0.67 2.68 0.34 1.36 0 0 Z " fill="#92C925" transform="translate(809,200)"/>
<path d="M0 0 C0.33 0 0.66 0 1 0 C1 1.65 1 3.3 1 5 C0.360625 5.28875 -0.27875 5.5775 -0.9375 5.875 C-3.15206079 6.82823451 -3.15206079 6.82823451 -4 9 C-4.99 9 -5.98 9 -7 9 C-5.84826645 6.53199953 -4.95216435 4.95216435 -3 3 C-2.01 3 -1.02 3 0 3 C0 2.01 0 1.02 0 0 Z " fill="#127633" transform="translate(156,192)"/>
<path d="M0 0 C0.99 0.33 1.98 0.66 3 1 C2.67 1.99 2.34 2.98 2 4 C2 5.32 2 6.64 2 8 C1.01 8.66 0.02 9.32 -1 10 C-0.67 6.7 -0.34 3.4 0 0 Z " fill="#90CC24" transform="translate(812,142)"/>
<path d="M0 0 C0 2.83967231 -0.40267181 5.23735711 -1 8 C-2.32 8.33 -3.64 8.66 -5 9 C-3.90931332 5.22454612 -3.0916909 2.52956528 0 0 Z " fill="#80B536" transform="translate(701,75)"/>
<path d="M0 0 C0.33 0.66 0.66 1.32 1 2 C2.32 1.67 3.64 1.34 5 1 C5 1.99 5 2.98 5 4 C1.67465243 5.10844919 -0.62182575 4.84454356 -4 4 C-3.67 3.01 -3.34 2.02 -3 1 C-2.01 0.67 -1.02 0.34 0 0 Z " fill="#17693A" transform="translate(118,211)"/>
<path d="M0 0 C0.68707555 2.49064888 1 4.37886292 1 7 C1.66 7 2.32 7 3 7 C2.67 8.32 2.34 9.64 2 11 C1.01 10.67 0.02 10.34 -1 10 C-2.37407134 7.14615953 -1.95284958 5.8365452 -1.0625 2.75 C-0.711875 1.8425 -0.36125 0.935 0 0 Z " fill="#529737" transform="translate(443,133)"/>
<path d="M0 0 C1.90389849 2.85584773 2.69462177 4.9311762 3.625 8.1875 C4.01558594 9.53908203 4.01558594 9.53908203 4.4140625 10.91796875 C4.60742188 11.60503906 4.80078125 12.29210937 5 13 C4.34 13 3.68 13 3 13 C0.33409063 8.44573816 -0.31563182 5.26053037 0 0 Z " fill="#508C3F" transform="translate(411,111)"/>
<path d="M0 0 C1.98 0.99 1.98 0.99 4 2 C3.39816251 4.02045442 2.72693904 6.02111039 2 8 C1.01 8.495 1.01 8.495 0 9 C0 6.03 0 3.06 0 0 Z " fill="#75B825" transform="translate(683,112)"/>
<path d="M0 0 C-0.33 0.66 -0.66 1.32 -1 2 C-1.99 2 -2.98 2 -4 2 C-4.66 2.66 -5.32 3.32 -6 4 C-6 3.34 -6 2.68 -6 2 C-8.97 2 -11.94 2 -15 2 C-15 1.67 -15 1.34 -15 1 C-9.94997778 -0.03590199 -5.12583611 -0.10251672 0 0 Z " fill="#457B3E" transform="translate(318,113)"/>
<path d="M0 0 C2.9375 0.75 2.9375 0.75 6 2 C6.875 4.125 6.875 4.125 7 6 C4.03 5.505 4.03 5.505 1 5 C0.67 3.35 0.34 1.7 0 0 Z " fill="#97C92E" transform="translate(834,81)"/>
<path d="M0 0 C2.0625 0.4375 2.0625 0.4375 4 1 C3.67 2.98 3.34 4.96 3 7 C2.34 7 1.68 7 1 7 C0.34 5.02 -0.32 3.04 -1 1 C-0.67 0.67 -0.34 0.34 0 0 Z " fill="#4EA027" transform="translate(467,73)"/>
<path d="M0 0 C0.33 0.99 0.66 1.98 1 3 C0.34 3 -0.32 3 -1 3 C-0.9175 3.9075 -0.835 4.815 -0.75 5.75 C-1.05464439 9.71037702 -2.14911051 10.4184859 -5 13 C-4.55005243 11.20620902 -4.08975857 9.41501072 -3.625 7.625 C-3.36976563 6.62726563 -3.11453125 5.62953125 -2.8515625 4.6015625 C-2 2 -2 2 0 0 Z " fill="#57933E" transform="translate(470,60)"/>
<path d="M0 0 C2.90802461 2.21928194 4.95312762 3.92969143 7 7 C6.67 7.99 6.34 8.98 6 10 C0.42857143 3.71428571 0.42857143 3.71428571 0 0 Z " fill="#1F6835" transform="translate(162,71)"/>
<path d="M0 0 C4.35535069 1.16142685 6.64619703 2.07699505 9 6 C2.35384615 4.52307692 2.35384615 4.52307692 0.5625 1.875 C0.376875 1.25625 0.19125 0.6375 0 0 Z " fill="#206E3D" transform="translate(152,65)"/>
<path d="M0 0 C0 0.66 0 1.32 0 2 C-3.63 1.67 -7.26 1.34 -11 1 C-10 -1 -10 -1 -8.3125 -1.75 C-5.17326781 -2.08937645 -2.91097894 -1.12469641 0 0 Z " fill="#1D633C" transform="translate(116,88)"/>
<path d="M0 0 C1.17571451 3.67410785 1.07366746 7.16929183 1 11 C-1.29633824 7.55549263 -1.54016485 5.06187717 -2 1 C-1.34 0.67 -0.68 0.34 0 0 Z " fill="#408E36" transform="translate(357,74)"/>
<path d="M0 0 C1.32 0.33 2.64 0.66 4 1 C3.67 3.64 3.34 6.28 3 9 C0.87491756 5.81237635 0.4979837 3.73487777 0 0 Z " fill="#499237" transform="translate(404,198)"/>
<path d="M0 0 C0.66 0.33 1.32 0.66 2 1 C0.68 3.64 -0.64 6.28 -2 9 C-2.66 7.68 -3.32 6.36 -4 5 C-3.67 4.01 -3.34 3.02 -3 2 C-2.01 2 -1.02 2 0 2 C0 1.34 0 0.68 0 0 Z " fill="#88B744" transform="translate(729,103)"/>
<path d="M0 0 C0.99 0.33 1.98 0.66 3 1 C2.67 3.64 2.34 6.28 2 9 C1.34 8.67 0.68 8.34 0 8 C0 5.36 0 2.72 0 0 Z " fill="#3A8D34" transform="translate(349,55)"/>
<path d="M0 0 C1.65 0.33 3.3 0.66 5 1 C4.67 2.65 4.34 4.3 4 6 C3.34 6 2.68 6 2 6 C0.375 4 0.375 4 -1 2 C-0.67 1.34 -0.34 0.68 0 0 Z " fill="#94CC23" transform="translate(834,177)"/>
<path d="M0 0 C0.66 0.99 1.32 1.98 2 3 C-1.13498292 4.85776765 -3.37471432 5.20140476 -7 5 C-4.702779 3.25728062 -2.40133271 1.60088848 0 0 Z " fill="#93BC3C" transform="translate(795,170)"/>
<path d="M0 0 C0.33 0 0.66 0 1 0 C1.33 3.3 1.66 6.6 2 10 C1.01 9.67 0.02 9.34 -1 9 C-0.67 6.03 -0.34 3.06 0 0 Z " fill="#87B241" transform="translate(723,141)"/>
<path d="M0 0 C0.66 0.33 1.32 0.66 2 1 C1.01 3.97 0.02 6.94 -1 10 C-2.31223496 6.06329512 -1.24296256 3.87511856 0 0 Z " fill="#609B3A" transform="translate(509,69)"/>
<path d="M0 0 C0.66 0.66 1.32 1.32 2 2 C1.67 2.99 1.34 3.98 1 5 C0.01 5.33 -0.98 5.66 -2 6 C-2.66 5.01 -3.32 4.02 -4 3 C-3.34 3 -2.68 3 -2 3 C-2 2.34 -2 1.68 -2 1 C-1.34 0.67 -0.68 0.34 0 0 Z " fill="#7CBE24" transform="translate(726,58)"/>
<path d="M0 0 C2.04119788 1.61594832 4.04072937 3.2856382 6 5 C6 5.66 6 6.32 6 7 C4.125 6.875 4.125 6.875 2 6 C0.75 2.9375 0.75 2.9375 0 0 Z " fill="#6A9D41" transform="translate(575,174)"/>
<path d="M0 0 C2.6855594 2.6855594 3.06049974 5.37621328 4 9 C3.01 8.67 2.02 8.34 1 8 C-0.35439668 5.29120665 -0.06501451 2.99066732 0 0 Z " fill="#8EB93F" transform="translate(725,151)"/>
<path d="M0 0 C0.33 0 0.66 0 1 0 C1.25 2.75 1.25 2.75 1 6 C-1 8.375 -1 8.375 -3 10 C-2.01 6.7 -1.02 3.4 0 0 Z " fill="#7BA843" transform="translate(688,94)"/>
<path d="M0 0 C1.98 1.65 3.96 3.3 6 5 C4.02 5.99 4.02 5.99 2 7 C1.34 4.69 0.68 2.38 0 0 Z " fill="#9BC442" transform="translate(827,69)"/>
<path d="" fill="#000000" transform="translate(0,0)"/>
<path d="" fill="#000000" transform="translate(0,0)"/>
<path d="" fill="#000000" transform="translate(0,0)"/>
<path d="" fill="#000000" transform="translate(0,0)"/>
<path d="" fill="#000000" transform="translate(0,0)"/>
<path d="" fill="#000000" transform="translate(0,0)"/>
<path d="" fill="#000000" transform="translate(0,0)"/>
<path d="" fill="#000000" transform="translate(0,0)"/>
<path d="" fill="#000000" transform="translate(0,0)"/>
<path d="" fill="#000000" transform="translate(0,0)"/>
<path d="" fill="#000000" transform="translate(0,0)"/>
<path d="" fill="#000000" transform="translate(0,0)"/>
<path d="" fill="#000000" transform="translate(0,0)"/>
<path d="" fill="#000000" transform="translate(0,0)"/>
<path d="" fill="#000000" transform="translate(0,0)"/>
<path d="" fill="#000000" transform="translate(0,0)"/>
<path d="" fill="#000000" transform="translate(0,0)"/>
<path d="" fill="#000000" transform="translate(0,0)"/>
<path d="" fill="#000000" transform="translate(0,0)"/>
<path d="" fill="#000000" transform="translate(0,0)"/>
<path d="" fill="#000000" transform="translate(0,0)"/>
<path d="" fill="#000000" transform="translate(0,0)"/>
<path d="" fill="#000000" transform="translate(0,0)"/>
<path d="" fill="#000000" transform="translate(0,0)"/>
<path d="" fill="#000000" transform="translate(0,0)"/>
<path d="" fill="#000000" transform="translate(0,0)"/>
<path d="" fill="#000000" transform="translate(0,0)"/>
<path d="" fill="#000000" transform="translate(0,0)"/>
<path d="" fill="#000000" transform="translate(0,0)"/>
<path d="" fill="#000000" transform="translate(0,0)"/>
<path d="" fill="#000000" transform="translate(0,0)"/>
<path d="" fill="#000000" transform="translate(0,0)"/>
<path d="" fill="#000000" transform="translate(0,0)"/>
<path d="" fill="#000000" transform="translate(0,0)"/>
<path d="" fill="#000000" transform="translate(0,0)"/>
<path d="" fill="#000000" transform="translate(0,0)"/>
<path d="" fill="#000000" transform="translate(0,0)"/>
<path d="" fill="#000000" transform="translate(0,0)"/>
<path d="" fill="#000000" transform="translate(0,0)"/>
<path d="" fill="#000000" transform="translate(0,0)"/>
<path d="" fill="#000000" transform="translate(0,0)"/>
<path d="" fill="#000000" transform="translate(0,0)"/>
<path d="" fill="#000000" transform="translate(0,0)"/>
<path d="" fill="#000000" transform="translate(0,0)"/>
<path d="" fill="#000000" transform="translate(0,0)"/>
<path d="" fill="#000000" transform="translate(0,0)"/>
<path d="" fill="#000000" transform="translate(0,0)"/>
<path d="" fill="#000000" transform="translate(0,0)"/>
<path d="" fill="#000000" transform="translate(0,0)"/>
<path d="" fill="#000000" transform="translate(0,0)"/>
<path d="" fill="#000000" transform="translate(0,0)"/>
<path d="" fill="#000000" transform="translate(0,0)"/>
<path d="" fill="#000000" transform="translate(0,0)"/>
<path d="" fill="#000000" transform="translate(0,0)"/>
<path d="" fill="#000000" transform="translate(0,0)"/>
<path d="" fill="#000000" transform="translate(0,0)"/>
<path d="" fill="#000000" transform="translate(0,0)"/>
<path d="" fill="#000000" transform="translate(0,0)"/>
<path d="" fill="#000000" transform="translate(0,0)"/>
<path d="" fill="#000000" transform="translate(0,0)"/>
<path d="" fill="#000000" transform="translate(0,0)"/>
<path d="" fill="#000000" transform="translate(0,0)"/>
</svg>
